<?xml version="1.0" encoding="UTF-8" standalone="no"?>
<!-- Generator: Adobe Illustrator 16.0.0, SVG Export Plug-In . SVG Version: 6.00 Build 0)  -->

<svg
   version="1.1"
   id="Layer_1"
   x="0px"
   y="0px"
   width="250px"
   height="114px"
   viewBox="0 0 250 114"
   enable-background="new 0 0 250 114"
   xml:space="preserve"
   sodipodi:docname="kara_p5js.svg"
   inkscape:version="1.1.2 (b8e25be8, 2022-02-05)"
   xmlns:inkscape="http://www.inkscape.org/namespaces/inkscape"
   xmlns:sodipodi="http://sodipodi.sourceforge.net/DTD/sodipodi-0.dtd"
   xmlns="http://www.w3.org/2000/svg"
   xmlns:svg="http://www.w3.org/2000/svg"><defs
   id="defs14" /><sodipodi:namedview
   id="namedview12"
   pagecolor="#ffffff"
   bordercolor="#666666"
   borderopacity="1.0"
   inkscape:pageshadow="2"
   inkscape:pageopacity="0.0"
   inkscape:pagecheckerboard="0"
   showgrid="false"
   inkscape:zoom="4.68"
   inkscape:cx="100.10684"
   inkscape:cy="58.867521"
   inkscape:window-width="1920"
   inkscape:window-height="1027"
   inkscape:window-x="0"
   inkscape:window-y="25"
   inkscape:window-maximized="0"
   inkscape:current-layer="text1452" />

<g
   aria-label="Kara
p5*JS"
   id="text1452"
   style="font-size:57.7621px;line-height:1;font-family:Monaco;-inkscape-font-specification:'Monaco, Normal';fill:#ec245e;stroke-width:1.44406"><path
     d="M 34.500399,42.614777 H 27.251933 L 10.639688,23.915425 6.4654739,28.371681 V 42.614777 H 0.88105205 V 0.61879652 H 6.4654739 V 22.533421 L 26.857075,0.61879652 h 6.768996 L 14.870311,20.361702 Z"
     style="font-family:'Noto Sans Adlam';-inkscape-font-specification:'Noto Sans Adlam'"
     id="path45503" /><path
     d="m 64.848064,42.614777 h -5.274176 v -3.356294 q -0.705104,0.47947 -1.917882,1.353799 -1.184575,0.846124 -2.312741,1.353799 -1.325595,0.648696 -3.046048,1.071758 -1.720453,0.451266 -4.033193,0.451266 -4.258827,0 -7.220263,-2.820415 -2.961436,-2.820415 -2.961436,-7.192058 0,-3.581927 1.523024,-5.781851 1.551229,-2.228128 4.399848,-3.497315 2.876823,-1.269186 6.910017,-1.720453 4.033193,-0.451266 8.658674,-0.676899 v -0.817921 q 0,-1.805065 -0.648696,-2.98964 -0.620491,-1.184574 -1.805065,-1.861474 -1.128166,-0.648695 -2.707599,-0.874328 -1.579432,-0.225634 -3.299885,-0.225634 -2.087107,0 -4.653685,0.564083 -2.566578,0.535879 -5.30238,1.579433 H 40.874536 V 11.78764 q 1.551228,-0.423062 4.48446,-0.930737 2.933232,-0.507675 5.781851,-0.507675 3.32809,0 5.781851,0.564083 2.481965,0.535879 4.287031,1.861474 1.776861,1.297391 2.707598,3.356294 0.930737,2.058903 0.930737,5.104952 z m -5.274176,-7.756142 v -8.771491 q -2.425557,0.141021 -5.725443,0.423063 -3.271681,0.282041 -5.189563,0.81792 -2.284536,0.648696 -3.694744,2.030699 -1.410208,1.353799 -1.410208,3.751152 0,2.707598 1.635841,4.089602 1.635841,1.353799 4.992135,1.353799 2.792211,0 5.104951,-1.071758 2.31274,-1.099962 4.287031,-2.622986 z"
     style="font-family:'Noto Sans Adlam';-inkscape-font-specification:'Noto Sans Adlam'"
     id="path45505" /><path
     d="m 94.772671,16.892591 h -0.282042 q -1.184574,-0.282041 -2.31274,-0.394858 -1.099962,-0.141021 -2.622986,-0.141021 -2.453761,0 -4.738297,1.099962 -2.284536,1.071758 -4.399848,2.792211 v 22.365892 h -5.30238 V 11.110741 h 5.30238 v 4.653684 q 3.158865,-2.538373 5.556218,-3.581927 2.425557,-1.071757 4.935726,-1.071757 1.382004,0 2.002495,0.08461 0.620491,0.05641 1.861474,0.253837 z"
     style="font-family:'Noto Sans Adlam';-inkscape-font-specification:'Noto Sans Adlam'"
     id="path45507" /><path
     d="m 124.30241,42.614777 h -5.27417 v -3.356294 q -0.70511,0.47947 -1.91788,1.353799 -1.18458,0.846124 -2.31275,1.353799 -1.32559,0.648696 -3.04604,1.071758 -1.72046,0.451266 -4.0332,0.451266 -4.25882,0 -7.22026,-2.820415 -2.961435,-2.820415 -2.961435,-7.192058 0,-3.581927 1.523024,-5.781851 1.551231,-2.228128 4.399851,-3.497315 2.87682,-1.269186 6.91001,-1.720453 4.0332,-0.451266 8.65868,-0.676899 v -0.817921 q 0,-1.805065 -0.6487,-2.98964 -0.62049,-1.184574 -1.80506,-1.861474 -1.12817,-0.648695 -2.7076,-0.874328 -1.57943,-0.225634 -3.29989,-0.225634 -2.0871,0 -4.65368,0.564083 -2.56658,0.535879 -5.30238,1.579433 h -0.28204 V 11.78764 q 1.55122,-0.423062 4.48446,-0.930737 2.93323,-0.507675 5.78185,-0.507675 3.32809,0 5.78185,0.564083 2.48196,0.535879 4.28703,1.861474 1.77686,1.297391 2.7076,3.356294 0.93073,2.058903 0.93073,5.104952 z m -5.27417,-7.756142 v -8.771491 q -2.42556,0.141021 -5.72545,0.423063 -3.27168,0.282041 -5.18956,0.81792 -2.28453,0.648696 -3.69474,2.030699 -1.41021,1.353799 -1.41021,3.751152 0,2.707598 1.63584,4.089602 1.63584,1.353799 4.99214,1.353799 2.79221,0 5.10495,-1.071758 2.31274,-1.099962 4.28703,-2.622986 z"
     style="font-family:'Noto Sans Adlam';-inkscape-font-specification:'Noto Sans Adlam'"
     id="path45509" /><path
     d="m 28.041649,85.117744 q 0,3.835764 -1.099962,7.022833 -1.099962,3.158865 -3.102456,5.358789 -1.861474,2.087107 -4.399848,3.243474 -2.510169,1.12817 -5.330584,1.12817 -2.453761,0 -4.4562561,-0.53588 -1.9742906,-0.53588 -4.0331936,-1.664044 V 112.87063 H 0.31696904 V 69.746482 H 5.6193493 v 3.299885 q 2.1153113,-1.776861 4.7382977,-2.961435 2.65119,-1.212779 5.64083,-1.212779 5.697238,0 8.856103,4.315235 3.187069,4.287031 3.187069,11.930356 z m -5.471605,0.141021 q 0,-5.697239 -1.946087,-8.517654 -1.946086,-2.820415 -5.97928,-2.820415 -2.284536,0 -4.597276,0.987145 -2.3127404,0.987146 -4.4280517,2.594782 v 17.853228 q 2.2563321,1.015349 3.8639687,1.382003 1.635841,0.366654 3.694744,0.366654 4.428051,0 6.910017,-2.98964 2.481965,-2.98964 2.481965,-8.856103 z"
     style="font-family:'Noto Sans Adlam';-inkscape-font-specification:'Noto Sans Adlam'"
     id="path45511" /><path
     d="m 63.719898,87.909955 q 0,2.933231 -1.071758,5.612626 -1.071757,2.679394 -2.933231,4.512664 -2.030699,1.974295 -4.851114,3.046045 -2.792211,1.04356 -6.486955,1.04356 -3.440906,0 -6.627975,-0.73331 -3.187069,-0.70511 -5.386993,-1.720454 V 93.72001 h 0.394858 q 2.312741,1.466616 5.415197,2.510169 3.102457,1.01535 6.092097,1.01535 2.002494,0 3.863968,-0.564083 1.889678,-0.564083 3.356294,-1.974291 1.240983,-1.212778 1.861474,-2.905027 0.648696,-1.692249 0.648696,-3.920377 0,-2.17172 -0.761512,-3.66654 -0.733308,-1.49482 -2.058903,-2.397353 -1.466616,-1.071757 -3.581928,-1.49482 -2.087107,-0.451266 -4.681888,-0.451266 -2.481966,0 -4.794706,0.33845 -2.284536,0.33845 -3.948581,0.676899 V 59.254538 h 25.270919 v 4.935726 H 43.610339 v 11.168844 q 1.212778,-0.112817 2.481965,-0.169225 1.269187,-0.05641 2.199924,-0.05641 3.412702,0 5.97928,0.592287 2.566577,0.564083 4.710093,2.030699 2.256332,1.551228 3.497315,4.004989 1.240982,2.453761 1.240982,6.148505 z"
     style="font-family:'Noto Sans Adlam';-inkscape-font-specification:'Noto Sans Adlam'"
     id="path45513" /><path
     d="m 75.374989,103.75352 -3.427221,-1.80988 4.505448,-6.084276 -7.008474,-0.577622 0.539113,-3.542745 7.316539,2.079437 -0.80867,-7.393554 h 3.773793 l -0.770162,7.393554 7.393555,-2.079437 0.539114,3.542745 -7.08549,0.577622 4.582463,6.084276 -3.311696,1.80988 -3.273189,-6.738913 z"
     style="font-size:38.5081px;font-family:'Noto Sans Adlam';-inkscape-font-specification:'Noto Sans Adlam'"
     id="path45515" /><path
     d="m 103.10233,93.973841 q 0,3.685346 -2.25634,5.67844 -2.237528,1.993099 -6.016888,1.993099 -0.902533,0 -2.406756,-0.16923 -1.504222,-0.15042 -2.519573,-0.37605 v -3.478519 h 0.206831 q 0.770914,0.263239 1.899081,0.545281 1.128167,0.282041 2.312742,0.282041 1.729856,0 2.745206,-0.394858 1.034154,-0.394858 1.523026,-1.128167 0.507675,-0.752111 0.639294,-1.842673 0.150423,-1.090561 0.150423,-2.519573 V 76.224014 h -5.922877 v -2.970839 h 9.645831 z"
     style="font-size:38.5081px;font-family:'Noto Sans Adlam';-inkscape-font-specification:'Noto Sans Adlam'"
     id="path45517" /><path
     d="m 130.70481,93.259335 q 0,1.635843 -0.77091,3.234079 -0.75211,1.598237 -2.12472,2.707601 -1.50422,1.203375 -3.51612,1.880275 -1.99309,0.6769 -4.81351,0.6769 -3.02725,0 -5.45281,-0.56408 -2.40675,-0.56408 -4.90752,-1.673448 v -4.66309 h 0.26324 q 2.12471,1.767461 4.90752,2.726403 2.78281,0.958942 5.22718,0.958942 3.45971,0 5.37759,-1.297392 1.93669,-1.297392 1.93669,-3.459712 0,-1.861475 -0.92134,-2.745206 -0.90253,-0.883731 -2.76401,-1.372603 -1.41021,-0.376056 -3.06485,-0.620492 -1.63584,-0.244436 -3.47852,-0.620492 -3.72295,-0.789717 -5.52801,-2.688798 -1.78627,-1.917883 -1.78627,-4.982737 0,-3.51612 2.97084,-5.753651 2.97084,-2.256334 7.53992,-2.256334 2.95203,0 5.4152,0.564083 2.46316,0.564084 4.36224,1.391406 v 4.399851 h -0.26324 q -1.59823,-1.3538 -4.21182,-2.237531 -2.59478,-0.902533 -5.32119,-0.902533 -2.98964,0 -4.81351,1.240983 -1.80507,1.240984 -1.80507,3.196473 0,1.748659 0.90254,2.745206 0.90253,0.996548 3.17767,1.523026 1.20338,0.263239 3.42211,0.639294 2.21872,0.376056 3.76055,0.770915 3.12126,0.827322 4.7007,2.50077 1.57943,1.673447 1.57943,4.681892 z"
     style="font-size:38.5081px;font-family:'Noto Sans Adlam';-inkscape-font-specification:'Noto Sans Adlam'"
     id="path45519" /></g></svg>
